# xmcd
#
# Track frame offsets: 
#        150
#        20223
#        45406
#        64076
#        79200
#        98624
#        125175
#        166160
#
# Disc length: 2505 seconds
#
# Revision: 0
# Processed by: cddbd v1.5.2PL0 Copyright (c) Steve Scherf et al.
# Submitted via: ExactAudioCopy v1.3
#
DISCID=6409c708
DTITLE=Blue Rodeo - The Things We Left Behind [CD1]
DYEAR=2009
DGENRE=Country
TTITLE0=All The Things That Are Left Behind
TTITLE1=One More Night
TTITLE2=Waiting For The World
TTITLE3=Never Look Back
TTITLE4=Sheba
TTITLE5=One Light Left In Heaven
TTITLE6=Million Miles
TTITLE7=Gossip
EXTD=
EXTT0=
EXTT1=
EXTT2=
EXTT3=
EXTT4=
EXTT5=
EXTT6=
EXTT7=
PLAYORDER=
